<svg xmlns="http://www.w3.org/2000/svg" viewBox="0 0 1400 920" width="1400" height="920">
  <defs>
    <marker id="arrowA" markerWidth="10" markerHeight="7" refX="9" refY="3.5" orient="auto">
      <polygon points="0 0, 10 3.5, 0 7" fill="#d97757"/>
    </marker>
    <marker id="arrowB" markerWidth="10" markerHeight="7" refX="9" refY="3.5" orient="auto">
      <polygon points="0 0, 10 3.5, 0 7" fill="#7b8b5c"/>
    </marker>
    <marker id="arrowC" markerWidth="10" markerHeight="7" refX="9" refY="3.5" orient="auto">
      <polygon points="0 0, 10 3.5, 0 7" fill="#8c6f5a"/>
    </marker>
    <marker id="arrowE" markerWidth="10" markerHeight="7" refX="9" refY="3.5" orient="auto">
      <polygon points="0 0, 10 3.5, 0 7" fill="#b45309"/>
    </marker>
    <marker id="arrowF" markerWidth="10" markerHeight="7" refX="9" refY="3.5" orient="auto">
      <polygon points="0 0, 10 3.5, 0 7" fill="#9a6fb0"/>
    </marker>
    <marker id="arrowG" markerWidth="10" markerHeight="7" refX="9" refY="3.5" orient="auto">
      <polygon points="0 0, 10 3.5, 0 7" fill="#d97757"/>
    </marker>
    <marker id="arrowH" markerWidth="10" markerHeight="7" refX="9" refY="3.5" orient="auto">
      <polygon points="0 0, 10 3.5, 0 7" fill="#8f8a80"/>
    </marker>
    <style>
    text { font-family: 'Helvetica Neue', Helvetica, Arial, 'PingFang SC', 'Microsoft YaHei', sans-serif; }
    .title { font-size: 24px; font-weight: 700; fill: #141413; }
    .subtitle { font-size: 13px; font-weight: 500; fill: #8f8a80; }
    .section { font-size: 13px; font-weight: 700; fill: #8b7355; letter-spacing: 1.4px; }
    .section-sub { font-size: 12px; font-weight: 500; fill: #b4aba0; }
    .node-title { font-size: 18px; font-weight: 700; fill: #141413; }
    .node-sub { font-size: 12px; font-weight: 500; fill: #6b6257; }
    .node-type { font-size: 11px; font-weight: 700; fill: #a29a8f; letter-spacing: 0.08em; }
    .arrow-label { font-size: 12px; font-weight: 600; fill: #6b6257; }
    .legend { font-size: 12px; font-weight: 500; fill: #6b6257; }
    .footnote { font-size: 12px; font-weight: 500; fill: #a29a8f; }
    </style>
  </defs>
  <rect width="1400.0" height="920.0" fill="#f8f6f3"/>
  <text x="700.0" y="56" text-anchor="middle" class="title">Velaris-Agent · 酒店用户 / 商旅用户目标态架构</text>
  <text x="700.0" y="82" text-anchor="middle" class="subtitle">让 velaris-agent 成为共享决策内核：接收候选集，做联合排序，输出可解释依据，而不是直接承接强运营履约</text>
  <rect x="70.0" y="120.0" width="1260.0" height="92.0" rx="16.0" fill="none" stroke="#ded8cf" stroke-width="1.4" stroke-dasharray="5 4"/>
  <text x="26.0" y="166.0" text-anchor="start" dominant-baseline="middle" font-size="14.0" font-weight="600" fill="#6b6257">Upstream Surface</text>
  <rect x="70.0" y="244.0" width="1260.0" height="116.0" rx="16.0" fill="none" stroke="#ded8cf" stroke-width="1.4" stroke-dasharray="5 4"/>
  <text x="26.0" y="302.0" text-anchor="start" dominant-baseline="middle" font-size="14.0" font-weight="600" fill="#6b6257">Candidate Ecosystem</text>
  <rect x="70.0" y="392.0" width="1260.0" height="128.0" rx="16.0" fill="none" stroke="#ded8cf" stroke-width="1.4" stroke-dasharray="5 4"/>
  <text x="26.0" y="456.0" text-anchor="start" dominant-baseline="middle" font-size="14.0" font-weight="600" fill="#6b6257">Decision Input</text>
  <rect x="70.0" y="552.0" width="1260.0" height="160.0" rx="16.0" fill="none" stroke="#ded8cf" stroke-width="1.4" stroke-dasharray="5 4"/>
  <text x="26.0" y="632.0" text-anchor="start" dominant-baseline="middle" font-size="14.0" font-weight="600" fill="#6b6257">Decision Core</text>
  <rect x="70.0" y="744.0" width="1260.0" height="136.0" rx="16.0" fill="none" stroke="#ded8cf" stroke-width="1.4" stroke-dasharray="5 4"/>
  <text x="26.0" y="812.0" text-anchor="start" dominant-baseline="middle" font-size="14.0" font-weight="600" fill="#6b6257">Governance + Learning</text>
  <path d="M 330.0,166.0 L 860.0,166.0" fill="none" stroke="#8c6f5a" stroke-width="2.0" marker-end="url(#arrowC)"/>
  <path d="M 610.0,166.0 L 860.0,166.0" fill="none" stroke="#8c6f5a" stroke-width="2.0" marker-end="url(#arrowC)"/>
  <path d="M 1000.0,200.0 L 930.0,212.0 L 930.0,244.0 L 240.0,244.0 L 240.0,272.0 L 245.0,272.0" fill="none" stroke="#d97757" stroke-width="2.0" marker-end="url(#arrowA)"/>
  <path d="M 1000.0,200.0 L 1000.0,236.0 L 600.0,236.0 L 600.0,272.0" fill="none" stroke="#d97757" stroke-width="2.0" marker-end="url(#arrowA)"/>
  <path d="M 370.0,300.0 L 390.4,300.0 L 390.4,248.0 L 899.6,248.0 L 899.6,300.0 L 920.0,300.0" fill="none" stroke="#8f8a80" stroke-width="2.0" marker-end="url(#arrowH)" stroke-dasharray="6,4"/>
  <path d="M 740.0,300.0 L 920.0,300.0" fill="none" stroke="#8f8a80" stroke-width="2.0" marker-end="url(#arrowH)" stroke-dasharray="6,4"/>
  <path d="M 1000.0,200.0 L 1080.0,212.0 L 1080.0,392.0 L 245.0,392.0 L 245.0,424.0" fill="none" stroke="#8c6f5a" stroke-width="2.0" marker-end="url(#arrowC)"/>
  <path d="M 245.0,328.0 L 245.0,376.0 L 620.0,376.0 L 620.0,416.0" fill="none" stroke="#b45309" stroke-width="2.0" marker-end="url(#arrowE)"/>
  <path d="M 600.0,328.0 L 600.0,376.0 L 650.0,376.0 L 650.0,416.0 L 620.0,416.0" fill="none" stroke="#b45309" stroke-width="2.0" marker-end="url(#arrowE)"/>
  <path d="M 380.0,456.0 L 470.0,456.0" fill="none" stroke="#d97757" stroke-width="2.0" marker-end="url(#arrowA)"/>
  <path d="M 380.0,456.0 L 380.0,446.0 L 900.0,446.0 L 900.0,456.0" fill="none" stroke="#8c6f5a" stroke-width="2.0" marker-end="url(#arrowC)"/>
  <path d="M 1025.0,488.0 L 1025.0,540.0 L 240.0,540.0 L 240.0,592.0" fill="none" stroke="#d97757" stroke-width="2.0" marker-end="url(#arrowA)"/>
  <path d="M 620.0,496.0 L 620.0,540.0 L 240.0,540.0 L 240.0,592.0" fill="none" stroke="#8c6f5a" stroke-width="2.0" marker-end="url(#arrowC)"/>
  <path d="M 380.0,628.0 L 470.0,628.0" fill="none" stroke="#8c6f5a" stroke-width="2.0" marker-end="url(#arrowC)"/>
  <path d="M 790.0,628.0 L 900.0,628.0" fill="none" stroke="#b45309" stroke-width="2.0" marker-end="url(#arrowE)"/>
  <path d="M 230.0,780.0 L 230.0,720.0 L 630.0,720.0 L 630.0,680.0" fill="none" stroke="#d97757" stroke-width="2.0" marker-end="url(#arrowA)" stroke-dasharray="6,4"/>
  <path d="M 630.0,758.0 L 630.0,720.0 L 680.0,720.0 L 680.0,680.0 L 630.0,680.0" fill="none" stroke="#8c6f5a" stroke-width="2.0" marker-end="url(#arrowC)" stroke-dasharray="6,4"/>
  <path d="M 630.0,680.0 L 580.0,680.0 L 580.0,720.0 L 560.0,720.0 L 560.0,758.0 L 630.0,758.0" fill="none" stroke="#7b8b5c" stroke-width="2.0" marker-end="url(#arrowB)" stroke-dasharray="6,4"/>
  <path d="M 1040.0,592.0 L 1040.0,200.0 L 1000.0,200.0" fill="none" stroke="#8c6f5a" stroke-width="2.0" marker-end="url(#arrowC)"/>
  <path d="M 1040.0,664.0 L 1040.0,780.0" fill="none" stroke="#d97757" stroke-width="2.0" marker-end="url(#arrowA)" stroke-dasharray="6,4"/>
  <path d="M 900.0,810.0 L 790.0,810.0" fill="none" stroke="#d97757" stroke-width="2.0" marker-end="url(#arrowA)" stroke-dasharray="6,4"/>
  <rect x="120.0" y="142.0" width="210.0" height="48.0" rx="10.0" fill="#e9f1fb" stroke="#8c6f5a" stroke-width="1.8"/>
  <text x="225.0" y="160.0" text-anchor="middle" class="node-type">ENTRY</text>
  <text x="225.0" y="172.0" text-anchor="middle" class="node-title">酒店会员礼宾 Chat</text>
  <rect x="380.0" y="142.0" width="230.0" height="48.0" rx="10.0" fill="#e9f1fb" stroke="#8c6f5a" stroke-width="1.8"/>
  <text x="495.0" y="160.0" text-anchor="middle" class="node-type">ENTRY</text>
  <text x="495.0" y="172.0" text-anchor="middle" class="node-title">商旅订阅 / 企业差旅入口</text>
  <rect x="860.0" y="132.0" width="280.0" height="68.0" rx="10.0" fill="#f7ecda" stroke="#d97757" stroke-width="2.0"/>
  <rect x="866.0" y="138.0" width="268.0" height="56.0" rx="7.0" fill="none" stroke="#d97757" stroke-width="1.2" opacity="0.65"/>
  <text x="1000.0" y="150.0" text-anchor="middle" class="node-type">ORCHESTRATION</text>
  <text x="1000.0" y="172.0" text-anchor="middle" class="node-title">velaris-platform-agent</text>
  <rect x="120.0" y="272.0" width="250.0" height="56.0" rx="10.0" fill="#e5e8df" stroke="#7b8b5c" stroke-width="1.8"/>
  <text x="245.0" y="290.0" text-anchor="middle" class="node-type">TOP-K CANDIDATES</text>
  <text x="245.0" y="306.0" text-anchor="middle" class="node-title">Travel / Hotel Domain Agents</text>
  <rect x="460.0" y="272.0" width="280.0" height="56.0" rx="10.0" fill="#e5e8df" stroke="#7b8b5c" stroke-width="1.8"/>
  <text x="600.0" y="290.0" text-anchor="middle" class="node-type">TOP-K CANDIDATES</text>
  <text x="600.0" y="306.0" text-anchor="middle" class="node-title">Flower / Coffee / Car / Dining Skills</text>
  <rect x="920.0" y="264.0" width="250.0" height="72.0" rx="10.0" fill="#efe8de" stroke="#d0c3b3" stroke-width="1.8"/>
  <text x="1045.0" y="282.0" text-anchor="middle" class="node-type">SUPPLY</text>
  <text x="1045.0" y="306.0" text-anchor="middle" class="node-title">签约酒店 / 航司 / 本地服务能力</text>
  <rect x="110.0" y="424.0" width="270.0" height="64.0" rx="10.0" fill="#f7ecda" stroke="#d0b893" stroke-width="1.8"/>
  <text x="245.0" y="442.0" text-anchor="middle" class="node-type">CONTEXT</text>
  <text x="245.0" y="462.0" text-anchor="middle" class="node-title">Goal + Tenant Context Compiler</text>
  <rect x="470.0" y="416.0" width="300.0" height="80.0" rx="10.0" fill="#c8e4db" stroke="#8c6f5a" stroke-width="2.0"/>
  <rect x="476.0" y="422.0" width="288.0" height="68.0" rx="7.0" fill="none" stroke="#8c6f5a" stroke-width="1.2" opacity="0.65"/>
  <text x="620.0" y="434.0" text-anchor="middle" class="node-type">STANDARD CONTRACT</text>
  <text x="620.0" y="462.0" text-anchor="middle" class="node-title">Candidate Contract Normalizer</text>
  <rect x="900.0" y="424.0" width="250.0" height="64.0" rx="10.0" fill="#efe8de" stroke="#d0c3b3" stroke-width="1.8"/>
  <text x="1025.0" y="442.0" text-anchor="middle" class="node-type">HOTEL / ORG RULES</text>
  <text x="1025.0" y="462.0" text-anchor="middle" class="node-title">Policy Overlay</text>
  <rect x="100.0" y="592.0" width="280.0" height="72.0" rx="10.0" fill="#f7ecda" stroke="#d0b893" stroke-width="1.8"/>
  <text x="240.0" y="610.0" text-anchor="middle" class="node-type">HARD FILTER</text>
  <text x="240.0" y="634.0" text-anchor="middle" class="node-title">Feasibility + Bundle Planner</text>
  <rect x="470.0" y="576.0" width="320.0" height="104.0" rx="10.0" fill="#c8e4db" stroke="#8c6f5a" stroke-width="2.0"/>
  <rect x="476.0" y="582.0" width="308.0" height="92.0" rx="7.0" fill="none" stroke="#8c6f5a" stroke-width="1.2" opacity="0.65"/>
  <text x="630.0" y="594.0" text-anchor="middle" class="node-type">SHARED CORE</text>
  <text x="630.0" y="634.0" text-anchor="middle" class="node-title">Decision Graph</text>
  <text x="630.0" y="656.0" text-anchor="middle" class="node-sub">domain_rank + bundle_rank + Pareto + bias audit</text>
  <rect x="900.0" y="592.0" width="280.0" height="72.0" rx="10.0" fill="#efe8de" stroke="#d0c3b3" stroke-width="1.8"/>
  <text x="1040.0" y="610.0" text-anchor="middle" class="node-type">EXPLANATION</text>
  <text x="1040.0" y="634.0" text-anchor="middle" class="node-title">Decision Basis Builder</text>
  <rect x="100.0" y="780.0" width="260.0" height="60.0" rx="10.0" fill="#efe8de" stroke="#d0c3b3" stroke-width="1.8"/>
  <text x="230.0" y="798.0" text-anchor="middle" class="node-type">GOVERNANCE</text>
  <text x="230.0" y="816.0" text-anchor="middle" class="node-title">Router + Authority + Audit Gate</text>
  <ellipse cx="630.0" cy="771.0" rx="80.0" ry="13.0" fill="#e5e8df" stroke="#7b8b5c" stroke-width="2.2"/>
  <rect x="470.0" y="771.0" width="320.0" height="78.0" fill="#e5e8df" stroke="#7b8b5c" stroke-width="2.2"/>
  <ellipse cx="630.0" cy="849.0" rx="80.0" ry="13.0" fill="#e5e8df" stroke="#7b8b5c" stroke-width="2.2"/>
  <ellipse cx="630.0" cy="797.52" rx="80.0" ry="13.0" fill="none" stroke="#7b8b5c" stroke-opacity="0.45" stroke-width="1.2"/>
  <ellipse cx="630.0" cy="820.4" rx="80.0" ry="13.0" fill="none" stroke="#7b8b5c" stroke-opacity="0.25" stroke-width="1.2"/>
  <text x="630.0" y="804.0" text-anchor="middle" class="node-title">DecisionMemory + PreferenceLearner</text>
  <text x="630.0" y="828.0" text-anchor="middle" class="node-sub">user preference + tenant policy + prior outcomes</text>
  <rect x="900.0" y="780.0" width="280.0" height="60.0" rx="10.0" fill="#efe8de" stroke="#d0c3b3" stroke-width="1.8"/>
  <text x="1040.0" y="798.0" text-anchor="middle" class="node-type">FEEDBACK</text>
  <text x="1040.0" y="816.0" text-anchor="middle" class="node-title">OutcomeStore + TaskLedger</text>
  <rect x="532.5" y="214.0" width="105" height="20" rx="6" fill="#f8f6f3" opacity="0.96"/>
  <text x="585.0" y="228.0" text-anchor="middle" class="arrow-label">collect top-k</text>
  <rect x="747.5" y="206.0" width="105" height="20" rx="6" fill="#f8f6f3" opacity="0.96"/>
  <text x="800.0" y="220.0" text-anchor="middle" class="arrow-label">collect top-k</text>
  <rect x="592.5" y="234.0" width="105" height="20" rx="6" fill="#f8f6f3" opacity="0.96"/>
  <text x="645.0" y="248.0" text-anchor="middle" class="arrow-label">signed supply</text>
  <rect x="571.5" y="362.0" width="182" height="20" rx="6" fill="#f8f6f3" opacity="0.96"/>
  <text x="662.5" y="376.0" text-anchor="middle" class="arrow-label">query + tenant + session</text>
  <rect x="379.5" y="442.0" width="91" height="20" rx="6" fill="#f8f6f3" opacity="0.96"/>
  <text x="425.0" y="456.0" text-anchor="middle" class="arrow-label">constraints</text>
  <rect x="584.0" y="432.0" width="112" height="20" rx="6" fill="#f8f6f3" opacity="0.96"/>
  <text x="640.0" y="446.0" text-anchor="middle" class="arrow-label">tenant context</text>
  <rect x="590.5" y="510.0" width="84" height="20" rx="6" fill="#f8f6f3" opacity="0.96"/>
  <text x="632.5" y="524.0" text-anchor="middle" class="arrow-label">hard rules</text>
  <rect x="374.0" y="510.0" width="112" height="20" rx="6" fill="#f8f6f3" opacity="0.96"/>
  <text x="430.0" y="524.0" text-anchor="middle" class="arrow-label">candidate sets</text>
  <rect x="362.0" y="614.0" width="126" height="20" rx="6" fill="#f8f6f3" opacity="0.96"/>
  <text x="425.0" y="628.0" text-anchor="middle" class="arrow-label">feasible bundles</text>
  <rect x="757.5" y="614.0" width="175" height="20" rx="6" fill="#f8f6f3" opacity="0.96"/>
  <text x="845.0" y="628.0" text-anchor="middle" class="arrow-label">selected + alternatives</text>
  <rect x="381.0" y="690.0" width="98" height="20" rx="6" fill="#f8f6f3" opacity="0.96"/>
  <text x="430.0" y="704.0" text-anchor="middle" class="arrow-label">gate / audit</text>
  <rect x="543.0" y="690.0" width="224" height="20" rx="6" fill="#f8f6f3" opacity="0.96"/>
  <text x="655.0" y="704.0" text-anchor="middle" class="arrow-label">preferences + policy + history</text>
  <rect x="511.0" y="728.0" width="168" height="20" rx="6" fill="#f8f6f3" opacity="0.96"/>
  <text x="595.0" y="742.0" text-anchor="middle" class="arrow-label">trace / feedback hooks</text>
  <rect x="927.5" y="382.0" width="189" height="20" rx="6" fill="#f8f6f3" opacity="0.96"/>
  <text x="1022.0" y="396.0" text-anchor="middle" class="arrow-label">proposal + decision basis</text>
  <rect x="955.5" y="708.0" width="133" height="20" rx="6" fill="#f8f6f3" opacity="0.96"/>
  <text x="1022.0" y="722.0" text-anchor="middle" class="arrow-label">decision snapshot</text>
  <rect x="775.0" y="796.0" width="140" height="20" rx="6" fill="#f8f6f3" opacity="0.96"/>
  <text x="845.0" y="810.0" text-anchor="middle" class="arrow-label">execution outcomes</text>
  <rect x="1226.0" y="820.0" width="142" height="134" rx="10" fill="#fffaf3" opacity="0.88"/>
  <line x1="1236.0" y1="834.0" x2="1266.0" y2="834.0" stroke="#8c6f5a" stroke-width="2.0" marker-end="url(#arrowC)"/>
  <text x="1276.0" y="838.0" class="legend">主请求 / 排序路径</text>
  <line x1="1236.0" y1="856.0" x2="1266.0" y2="856.0" stroke="#d97757" stroke-width="2.0" marker-end="url(#arrowA)"/>
  <text x="1276.0" y="860.0" class="legend">治理与硬约束</text>
  <line x1="1236.0" y1="878.0" x2="1266.0" y2="878.0" stroke="#b45309" stroke-width="2.0" marker-end="url(#arrowE)"/>
  <text x="1276.0" y="882.0" class="legend">结构化决策结果</text>
  <line x1="1236.0" y1="900.0" x2="1266.0" y2="900.0" stroke="#7b8b5c" stroke-width="2.0" marker-end="url(#arrowB)"/>
  <text x="1276.0" y="904.0" class="legend">记忆回写</text>
  <line x1="1236.0" y1="922.0" x2="1266.0" y2="922.0" stroke="#d97757" stroke-width="2.0" marker-end="url(#arrowA)"/>
  <text x="1276.0" y="926.0" class="legend">执行反馈闭环</text>
  <text x="42.0" y="904.0" class="footnote">Velaris-Agent 的职责是“联合决策 + 解释 + 学习”，不是“直接做强运营履约”</text>
</svg>